<?xml version="1.0" encoding="utf-8"?>
<!-- Svg Vector Icons : http://www.sfont.cn -->
<!DOCTYPE svg PUBLIC "-//W3C//DTD SVG 1.1//EN" "http://www.w3.org/Graphics/SVG/1.1/DTD/svg11.dtd">
<svg version="1.1" xmlns="http://www.w3.org/2000/svg" xmlns:xlink="http://www.w3.org/1999/xlink" x="0px" y="0px" viewBox="0 0 1000 1000" enable-background="new 0 0 1000 1000" xml:space="preserve">
<metadata> Svg Vector Icons : http://www.sfont.cn </metadata>
<g><path d="M644.5,221.9L337.1,528l126.4,114.8L267.1,949.1l398.5-348.4L526.6,470.7L644.5,221.9z"/><path d="M337,156.3c17.4,17.8,72.8,21.6,166.2,11.4C474.7,155,451.3,104.1,433,15H276.5C293.1,98.9,313.2,146,337,156.3L337,156.3z"/><path d="M197.4,778.4l-0.4,0.4l93.9-565.1H138.2L10,985h152.8l29.2-175.7h0.4L197.4,778.4z"/><path d="M984.4,270.9c23.8-96.7-28.3-143.8-155.9-141.3H454.2l-7,42H749c75.1-7.7,101.8,30.6,80.3,114.6l-85.7,515.4c-9.9,73.9-47.3,108.3-112.6,103.3c-58.2-2.7-106.4-11.5-144.5-26.8c37.3,66.1,107.7,101.8,211.4,106.9c114.1,2.4,178.7-49.7,194-156.7L984.4,270.9L984.4,270.9z"/></g>
</svg>